<svg xmlns="http://www.w3.org/2000/svg" stroke="#000" stroke-linecap="round" stroke-linejoin="round" fill="#fff" fill-rule="evenodd">
    <g stroke="none" fill-rule="nonzero">
        <path d="M112.4434 114.2134L89.424 46.3097l44.996-26.707 26.074 66.5628v106.493l-48.0504 30.2083V114.2134zm-8.0456-60.454l18.1772 48.4228 25.8876-15.756-17.544-47.827-26.521 15.16z" fill="#bac6f4"/>
        <path d="M104.3978 53.6848l26.4836-15.0856 17.544 47.9014-25.8876 15.756-18.14-48.5718z"/>
        <g fill="#5078f2">
            <path d="M97.358 214.225V113.5056L76.834 54.8767l12.59-8.6416 23.0195 67.9782v108.6534L97.358 214.225z"/>
            <path d="M54.187 201.2627l43.1708-24.8074v37.7698l15.011 8.567.0745.0373.3352-.1863.1118-.0372 47.7896-29.9477V181.521l21.2315 13.2976-69.468 42.0906-58.2564-35.6466z"/>
        </g>
        <path d="M183.8485 191.578l-19.4808-12.2174v-93.12c.001-.4716-.0875-.9395-.2608-1.378L138.033 18.3c-.4026-1.0192-1.2337-1.8098-2.272-2.1604a3.723 3.723 0 0 0-3.0915.3352l-45.145 26.558-12.6 8.6416a3.725 3.725 0 0 0-1.6017 4.4325l20.3003 58.033v60.156l-41.3083 23.7644c-1.7694 1.05-2.3522 3.3352-1.3028 5.104.3185.5364.7664.9843 1.3028 1.3028L110.58 240c1.1524.6653 2.5725.6653 3.725 0l69.43-42.0907c1.7488-1.0834 2.2875-3.3798 1.204-5.128a3.733 3.733 0 0 0-1.204-1.204h.1117zm-51.3-166.5373l24.3977 61.8323v103.6993l-40.787 25.5524V114.2133c.0033-.4046-.0596-.8073-.1862-1.192l-22.05-65.1 38.6264-22.8705zM81.304 56.3294l6.1832-4.2463 21.2315 62.7635V216.46l-7.636-4.3953v-98.708c-.0046-.4195-.0805-.8348-.2235-1.2292L81.304 56.3294zm31.1395 176.222l-50.9557-31.177 32.1453-18.624v31.3258a3.726 3.726 0 0 0 2.0488 3.576l14.8992 8.4553.5588.2235h1.2665a3.71 3.71 0 0 0 .9311 0h.3353l.596-.2607 48.46-30.2457a3.724 3.724 0 0 0 1.7506-3.166v-4.4325l10.3923 6.5184-62.4283 37.807zm8.865-126.6444a3.725 3.725 0 0 0 3.166-.3352l25.8877-15.756c1.5234-.9242 2.18-2.7973 1.5644-4.4698l-17.544-48.013c-.7398-1.9197-2.8956-2.876-4.8148-2.1366a3.699 3.699 0 0 0-.3627.1625l-26.5208 15.0855c-1.5877.907-2.282 2.8328-1.64 4.5443l18.177 48.423c.2766 1.1072 1.0453 2.0272 2.086 2.4956zm7.4497-61.7577l14.8994 40.973L124.25 96.93l-15.458-41.3456 19.965-11.4352zm19.0712 55.0157l-23.4665 14.4523c-1.5756 1.3228-1.78 3.6723-.4582 5.248 1.0207 1.216 2.7 1.6515 4.183 1.0843l23.4665-14.4523c1.5756-1.3228 1.78-3.6722.458-5.2478a3.724 3.724 0 0 0-4.1829-1.0844z" fill="#223e60"/>
    </g>
    <g stroke="#223e60" fill="#5078f2" stroke-width="3">
        <path d="M97.412 301.5q.988 0 1.558.912.57.912.57 2.508 0 2.964-1.444 4.712-3.648 4.408-7.372 6.802-3.724 2.394-8.816 2.394-5.624 0-9.196-3.306-3.572-3.306-6.688-10.298-2.28-5.016-3.762-7.486-1.482-2.47-2.926-3.496-1.444-1.026-3.648-1.254l-.836 5.624q-1.596 10.868-6.194 15.656-4.598 4.788-12.654 4.788-5.244 0-9.3-2.546-4.066-2.546-5.662-6.498-.532-1.368-.532-2.964 0-2.28 1.064-3.952 1.064-1.672 2.736-1.672.988 0 1.672.494.684.494 1.292 1.7 2.356 4.408 4.142 6.156 1.786 1.748 4.446 1.748 3.04 0 5.206-2.774 2.166-2.774 3.078-8.55l1.064-7.22h-1.216q-1.748 0-2.736-.988-.988-.988-.988-2.736 0-1.976 1.026-3.154 1.026-1.178 2.546-1.178h2.508q.532-3.724.76-5.168l2.356-17.1q-1.976-.228-3.724-.228-6.46 0-9.804 2.242-3.344 2.242-3.344 6.422 0 1.9.418 3.078.418 1.178 1.102 2.622.304.608.304 1.368 0 1.672-1.558 2.926-1.558 1.254-3.458 1.254-2.432 0-3.572-2.128-2.28-4.028-2.28-8.664 0-4.788 2.622-8.74 2.622-3.952 7.942-6.346 5.32-2.394 13.148-2.394 3.42 0 6.27.38 2.85.38 6.27 1.444 3.724 1.14 3.724 4.256 0 4.18-3.572 4.18L56.98 284.78q8.892-.912 14.478-7.638 5.586-6.726 9.3-18.278.684-2.128 2.318-3.268 1.634-1.14 4.142-1.14 2.128 0 3.306.95 1.178.95 1.178 2.698 0 .532-.304 1.748-3.8 12.54-10.868 19.912-7.068 7.372-15.428 9.804 2.888.684 4.75 2.052 1.862 1.368 3.154 3.382 1.292 2.014 2.964 5.586 2.356 5.016 4.408 7.106 2.052 2.1 4.788 2.1 2.432 0 4.636-1.634 2.204-1.634 5.548-5.586.912-1.064 2.052-1.064z"/>
        <path d="M103.34 278.016q-3.192 0-4.788-1.482-1.596-1.482-1.596-4.142 0-2.66 2.1-4.446 2.1-1.786 5.206-1.786 2.812 0 4.56 1.368 1.748 1.368 1.748 3.876 0 3.04-1.976 4.826-1.976 1.786-5.244 1.786zm-.608 40.812q-4.94 0-7.182-3.496-2.242-3.496-2.242-9.272 0-3.42.874-8.778.874-5.358 2.242-9.994.684-2.432 1.824-3.344 1.14-.912 3.648-.912 3.876 0 3.876 2.584 0 1.9-1.444 8.816-1.824 8.36-1.824 11.324 0 2.28.608 3.496.608 1.216 2.052 1.216 1.368 0 3.42-1.9 2.052-1.9 5.472-6.004.912-1.064 2.052-1.064.988 0 1.558.912.57.912.57 2.508 0 3.04-1.444 4.712-7.524 9.196-14.06 9.196z"/>
        <path d="M150.84 295.116q.988 0 1.52.988.532.988.532 2.508 0 3.648-2.204 4.332-4.56 1.596-10.032 1.824-1.444 6.384-5.7 10.222-4.256 3.838-9.652 3.838-4.56 0-7.8-2.204-3.23-2.204-4.902-5.852-1.672-3.648-1.672-7.904 0-5.776 2.204-10.298 2.204-4.522 6.08-7.068 3.876-2.546 8.588-2.546 5.776 0 9.3 4 3.534 4 4.142 9.842 3.572-.228 8.512-1.52.608-.152 1.064-.152zm-24.928 15.656q2.432 0 4.218-1.976 1.786-1.976 2.394-5.7-2.356-1.596-3.6-4.18-1.254-2.584-1.254-5.472 0-1.216.228-2.432h-.38q-3.04 0-5.054 2.926-2.014 2.926-2.014 8.246 0 4.18 1.634 6.384 1.634 2.204 3.838 2.204z"/>
        <path d="M160.492 320.5q-3.952 0-6.042-1.824-2.1-1.824-2.1-4.104 0-1.976 1.444-3.42 1.444-1.444 4.256-1.444.988 0 2.318.2 1.33.2 2.014.266-.076-1.976-.874-3.724-.798-1.748-2.014-3.382-1.216-1.634-2.28-2.85-2.356 4.484-4.674 7.448-2.318 2.964-5.054 5.624-1.368 1.368-2.888 1.368-1.216 0-1.976-.874-.76-.874-.76-2.166 0-1.52 1.064-2.812l.988-1.216q4.18-5.168 6.308-8.512 1.292-2.204 3.04-5.9 1.748-3.686 3.42-7.638 1.444-3.344 6.004-3.344 2.128 0 2.964.38.836.38.836 1.216 0 .456-.304 1.444-.304.988-.836 1.976-1.368 2.736-1.368 4.636 0 1.14.798 2.508.798 1.368 2.47 3.42 2.432 3.192 3.686 5.434 1.254 2.242 1.254 4.902 0 .76-.152 2.128 3.724-1.444 8.74-7.676.912-1.064 2.052-1.064.988 0 1.558.912.57.912.57 2.508 0 2.888-1.444 4.712-3.8 4.712-7.258 6.422-3.458 1.7-8.55 1.862-3.04 2.584-7.22 2.584z"/>
        <path d="M222.736 301.5q.988 0 1.558.912.57.912.57 2.508 0 3.04-1.444 4.712-3.42 4.18-6.916 6.688-3.496 2.508-8.284 2.508-5.852 0-9.424-3.344-3.572-3.344-3.572-8.892 0-2.964 3.04-4.256 3.344-1.444 4.788-3.078 1.444-1.634 1.444-4 0-1.368-.57-2.052-.57-.684-1.406-.684-2.052 0-4.522 2.964-2.47 2.964-4.598 7.638-2.128 4.674-3.344 9.614-.836 3.572-1.938 4.826-1.102 1.254-3.458 1.254-2.356 0-3.458-1.7-1.102-1.7-1.482-5.282-.38-3.572-.38-10.488 0-11.704 2.394-24.396 2.394-12.692 7.068-21.318 4.674-8.626 11.2-8.626 3.496 0 5.662 3.002 2.166 3.002 2.166 7.8 0 7.676-4.484 15.922-4.484 8.246-14.592 19.266-.228 3.952-.228 8.132 3.648-9.5 8.36-13.794 4.712-4.294 8.816-4.294 3.8 0 6.118 2.584 2.318 2.584 2.318 6.384 0 4.18-2.128 7.676-2.128 3.496-7.296 6.232.304 2.052 1.862 3.306 1.558 1.254 3.762 1.254 2.356 0 4.56-1.824 2.204-1.824 5.776-6.08.912-1.064 2.052-1.064zm-24.32-46.968q-1.368 0-3.04 3.914-1.672 3.914-3.23 10.564-1.558 6.65-2.546 14.478 4.712-5.548 7.8-12.084 3.078-6.536 3.078-11.856 0-2.432-.532-3.724-.532-1.292-1.52-1.292z"/>
    </g>
</svg>