<?xml version="1.0" encoding="iso-8859-1"?>
<!-- Generator: Adobe Illustrator 19.0.0, SVG Export Plug-In . SVG Version: 6.00 Build 0)  -->
<svg version="1.1" id="Capa_1" xmlns="http://www.w3.org/2000/svg" xmlns:xlink="http://www.w3.org/1999/xlink" x="0px" y="0px"
	 viewBox="0 0 482.285 482.285" style="enable-background:new 0 0 482.285 482.285;" xml:space="preserve">
<path style="fill:#BAC6F4;" d="M229.208,211.053l-49.44-145.84l96.64-57.36l56,142.96v228.72l-103.2,64.88L229.208,211.053z
	 M211.928,81.213l39.04,104l55.6-33.84l-37.68-102.72L211.928,81.213z"/>
<path style="fill:#FFFFFF;" d="M211.928,81.053l56.88-32.4l37.68,102.88l-55.6,33.84L211.928,81.053z"/>
<g>
	<path style="fill:#5078F2;" d="M196.808,425.853v-216.32l-44.08-125.92l27.04-18.56l49.44,146v233.36L196.808,425.853z"/>
	<path style="fill:#5078F2;" d="M104.088,398.013l92.72-53.28v81.12l32.24,18.4l0.16,0.08l0.72-0.4l0.24-0.08l102.64-64.32v-23.92
		l45.6,28.56l-149.2,90.4L104.088,398.013z"/>
</g>
<g>
	<path style="fill:#223E60;" d="M382.568,377.213l-41.84-26.24v-200c0.002-1.013-0.188-2.018-0.56-2.96l-56-142.96
		c-0.865-2.189-2.65-3.887-4.88-4.64c-2.212-0.74-4.638-0.477-6.64,0.72l-96.96,57.04l-27.04,18.56
		c-3.264,1.952-4.702,5.932-3.44,9.52l43.6,124.64v129.2l-88.72,51.04c-3.8,2.255-5.052,7.163-2.798,10.962
		c0.684,1.152,1.646,2.114,2.798,2.798l125.12,76.32c2.475,1.429,5.525,1.429,8,0l149.12-90.4c3.756-2.327,4.913-7.259,2.586-11.014
		c-0.651-1.05-1.536-1.935-2.586-2.586L382.568,377.213z M272.408,19.533l52.4,132.8v222.72l-87.6,54.88v-218.88
		c0.007-0.869-0.128-1.734-0.4-2.56l-47.36-139.84L272.408,19.533z M162.328,86.733l13.28-9.12l45.6,134.8v218.24l-16.4-9.44v-212
		c-0.01-0.901-0.173-1.793-0.48-2.64L162.328,86.733z M229.208,465.213l-109.44-66.96l69.04-40v67.28
		c-0.212,3.212,1.522,6.238,4.4,7.68l32,18.16l1.2,0.48h0.64h1.28h0.8c0.664,0.084,1.336,0.084,2,0h0.72l1.28-0.56l104.08-64.96
		c2.344-1.465,3.766-4.036,3.76-6.8v-9.52l22.32,14L229.208,465.213z"/>
	<path style="fill:#223E60;" d="M248.248,193.213c2.26,0.79,4.755,0.525,6.8-0.72l55.6-33.84c3.272-1.985,4.68-6.008,3.36-9.6
		l-37.68-103.12c-1.589-4.123-6.219-6.177-10.341-4.589c-0.266,0.102-0.525,0.219-0.779,0.349l-56.96,32.4
		c-3.41,1.948-4.901,6.084-3.52,9.76l39.04,104C244.362,190.231,246.013,192.207,248.248,193.213z M264.248,60.573l32,88
		l-41.68,25.36l-33.2-88.8L264.248,60.573z"/>
	<path style="fill:#223E60;" d="M305.208,178.733l-50.4,31.04c-3.384,2.841-3.825,7.887-0.984,11.271
		c2.192,2.612,5.799,3.547,8.984,2.329l50.4-31.04c3.384-2.841,3.825-7.887,0.984-11.271
		C312,178.45,308.393,177.515,305.208,178.733L305.208,178.733z"/>
</g>
<g>
</g>
<g>
</g>
<g>
</g>
<g>
</g>
<g>
</g>
<g>
</g>
<g>
</g>
<g>
</g>
<g>
</g>
<g>
</g>
<g>
</g>
<g>
</g>
<g>
</g>
<g>
</g>
<g>
</g>
</svg>
