<?xml version="1.0"?>
<svg xmlns="http://www.w3.org/2000/svg" viewBox="0 0 96 96"><g id="_9.Website_Wireframe" data-name="9.Website Wireframe"><path d="M95,16V87a3,3,0,0,1-3,3H4a3,3,0,0,1-3-3V16Z" style="fill:#ebf4ff"/><path d="M95,9v7H1V9A3,3,0,0,1,4,6H92A3,3,0,0,1,95,9Z" style="fill:#acc8f1"/><g id="_Group_" data-name="&lt;Group&gt;"><path d="M89,38V82a2.006,2.006,0,0,1-2,2H48V38Z" style="fill:#ebf4ff"/><path d="M48,38V84H9a2.006,2.006,0,0,1-2-2V38Z" style="fill:#c3d4ef"/><path d="M89,24V38H7V24a2.006,2.006,0,0,1,2-2H87A2.006,2.006,0,0,1,89,24Z" style="fill:#f8fafd"/><path d="M95,27a1,1,0,0,0,1-1V9a4,4,0,0,0-4-4H4A4,4,0,0,0,0,9V87a4,4,0,0,0,4,4H92a4,4,0,0,0,4-4V31a1,1,0,0,0-2,0V87a2,2,0,0,1-2,2H4a2,2,0,0,1-2-2V9A2,2,0,0,1,4,7H92a2,2,0,0,1,2,2V26A1,1,0,0,0,95,27Z" style="fill:#283d54"/><path d="M92,16a1,1,0,0,0-1-1H5a1,1,0,0,0,0,2H91A1,1,0,0,0,92,16Z" style="fill:#283d54"/><path d="M8,12a1,1,0,0,0,0-2H6a1,1,0,0,0,0,2Z" style="fill:#283d54"/><path d="M15,12a1,1,0,0,0,0-2H13a1,1,0,0,0,0,2Z" style="fill:#283d54"/><path d="M89,12a1,1,0,0,0,0-2H23a1,1,0,0,0,0,2Z" style="fill:#283d54"/><path d="M15,85H87a3,3,0,0,0,3-3V24a3,3,0,0,0-3-3H9a3,3,0,0,0-3,3V82a3,3,0,0,0,3,3,1,1,0,0,0,0-2,1,1,0,0,1-1-1V24a1,1,0,0,1,1-1H87a1,1,0,0,1,1,1V82a1,1,0,0,1-1,1H15a1,1,0,0,0,0,2Z" style="fill:#283d54"/><path d="M48,81a1,1,0,0,0,1-1V39H85a1,1,0,0,0,0-2H11a1,1,0,0,0,0,2H47V80A1,1,0,0,0,48,81Z" style="fill:#283d54"/></g></g></svg>
